# xmcd CD database file
#
# Track frame offsets:
#	150
#	16404
#	40974
#	71031
#
# Disc length: 1323 seconds
#
# Revision: 0
# Processed by: cddbd v1.5PL3 Copyright (c) Steve Scherf et al.
# Submitted via: CDex 1.50
#
DISCID=30052904
DTITLE=バンバンバザール - 新宿駅で待ってた
DYEAR=2000
DGENRE=Blues
TTITLE0=新宿駅で待ってた
TTITLE1=シカーダ
TTITLE2=君のこと 僕のこと
TTITLE3=movie
EXTD=YEAR: 2000
EXTT0=
EXTT1=
EXTT2=
EXTT3=
PLAYORDER=
